<svg width="13" height="14" viewBox="0 0 13 14" fill="none" xmlns="http://www.w3.org/2000/svg">
<path d="M9.16675 1V3.66667M3.83341 1V3.66667M1.16675 6.33333H11.8334M1.16675 3.66667C1.16675 3.31304 1.30722 2.97391 1.55727 2.72386C1.80732 2.47381 2.14646 2.33333 2.50008 2.33333H10.5001C10.8537 2.33333 11.1928 2.47381 11.4429 2.72386C11.6929 2.97391 11.8334 3.31304 11.8334 3.66667V11.6667C11.8334 12.0203 11.6929 12.3594 11.4429 12.6095C11.1928 12.8595 10.8537 13 10.5001 13H2.50008C2.14646 13 1.80732 12.8595 1.55727 12.6095C1.30722 12.3594 1.16675 12.0203 1.16675 11.6667V3.66667ZM3.83341 9H5.16675V10.3333H3.83341V9Z" stroke="#181B1A" stroke-linecap="round" stroke-linejoin="round"/>
</svg>
