<svg width="18" height="18" viewBox="0 0 18 18" fill="none" xmlns="http://www.w3.org/2000/svg">
<g clip-path="url(#clip0_626_3798)">
<path d="M4.36575 3.68251C7.28925 1.60876 11.4675 1.77826 14.1705 4.08451C16.9207 6.42976 17.2965 10.263 15.0345 13.0073C12.903 15.5925 9.06075 16.4445 5.86125 15.111L5.68725 15.0353L2.406 15.7335L2.34975 15.7433L2.26725 15.75L2.1825 15.747L2.1495 15.7433L2.067 15.7283L1.98825 15.7028L1.91325 15.6698L1.85625 15.6383L1.77525 15.5805L1.7145 15.525L1.65975 15.4628L1.62 15.4065L1.57125 15.3203L1.53975 15.2408L1.5165 15.156L1.50675 15.0998L1.5 15.0173L1.503 14.9325L1.50675 14.8995L1.52175 14.817L1.53825 14.763L2.40075 12.1748L2.38425 12.1478C0.72675 9.33751 1.4775 5.85376 4.1925 3.80926L4.365 3.68326L4.36575 3.68251Z" fill="#181B1A"/>
</g>
<defs>
<clipPath id="clip0_626_3798">
<rect width="18" height="18" fill="white"/>
</clipPath>
</defs>
</svg>
