<svg width="12" height="12" viewBox="0 0 12 12" fill="none" xmlns="http://www.w3.org/2000/svg">
<path fill-rule="evenodd" clip-rule="evenodd" d="M0.166626 1.91666C0.166626 0.950158 0.950128 0.166656 1.91663 0.166656H10.0833C11.0498 0.166656 11.8333 0.950158 11.8333 1.91666V10.0833C11.8333 11.0498 11.0498 11.8333 10.0833 11.8333H1.91663C0.950128 11.8333 0.166626 11.0498 0.166626 10.0833V1.91666ZM3.83748 3.83751C4.06529 3.6097 4.43463 3.6097 4.66244 3.83751L5.99996 5.17503L7.33748 3.83751C7.56529 3.6097 7.93463 3.6097 8.16244 3.83751C8.39024 4.06532 8.39024 4.43466 8.16244 4.66247L6.82492 5.99999L8.16244 7.33751C8.39024 7.56532 8.39024 7.93466 8.16244 8.16247C7.93463 8.39028 7.56529 8.39028 7.33748 8.16247L5.99996 6.82495L4.66244 8.16247C4.43463 8.39028 4.06529 8.39028 3.83748 8.16247C3.60967 7.93466 3.60967 7.56532 3.83748 7.33751L5.175 5.99999L3.83748 4.66247C3.60967 4.43466 3.60967 4.06532 3.83748 3.83751Z" fill="#033028"/>
</svg>
