<svg width="14" height="14" viewBox="0 0 14 14" fill="none" xmlns="http://www.w3.org/2000/svg">
<path d="M7 13C5.4087 13 3.88258 12.3679 2.75736 11.2426C1.63214 10.1174 1 8.5913 1 7C1 5.4087 1.63214 3.88258 2.75736 2.75736C3.88258 1.63214 5.4087 1 7 1C10.3133 1 13 3.388 13 6.33333C13 7.04 12.684 7.71867 12.1213 8.21867C11.5587 8.71867 10.7953 9 10 9H8.33333C8.03591 8.99521 7.74542 9.09001 7.50808 9.26933C7.27074 9.44865 7.10018 9.70219 7.02354 9.98961C6.94689 10.277 6.96856 10.5818 7.0851 10.8555C7.20164 11.1292 7.40635 11.3561 7.66667 11.5C7.79978 11.6228 7.89106 11.7843 7.92769 11.9616C7.96433 12.139 7.94447 12.3234 7.87091 12.4889C7.79735 12.6544 7.67379 12.7927 7.51758 12.8844C7.36137 12.9761 7.18037 13.0165 7 13Z" stroke="#181B1A" stroke-linecap="round" stroke-linejoin="round"/>
<path d="M4 6C4 6.17681 4.07024 6.34638 4.19526 6.4714C4.32029 6.59643 4.48986 6.66667 4.66667 6.66667C4.84348 6.66667 5.01305 6.59643 5.13807 6.4714C5.2631 6.34638 5.33333 6.17681 5.33333 6C5.33333 5.82319 5.2631 5.65362 5.13807 5.5286C5.01305 5.40357 4.84348 5.33333 4.66667 5.33333C4.48986 5.33333 4.32029 5.40357 4.19526 5.5286C4.07024 5.65362 4 5.82319 4 6Z" stroke="#181B1A" stroke-linecap="round" stroke-linejoin="round"/>
<path d="M6.66667 4C6.66667 4.17681 6.7369 4.34638 6.86193 4.4714C6.98695 4.59643 7.15652 4.66667 7.33333 4.66667C7.51014 4.66667 7.67971 4.59643 7.80474 4.4714C7.92976 4.34638 8 4.17681 8 4C8 3.82319 7.92976 3.65362 7.80474 3.5286C7.67971 3.40357 7.51014 3.33333 7.33333 3.33333C7.15652 3.33333 6.98695 3.40357 6.86193 3.5286C6.7369 3.65362 6.66667 3.82319 6.66667 4Z" stroke="#181B1A" stroke-linecap="round" stroke-linejoin="round"/>
<path d="M9.33333 6C9.33333 6.17681 9.40357 6.34638 9.5286 6.4714C9.65362 6.59643 9.82319 6.66667 10 6.66667C10.1768 6.66667 10.3464 6.59643 10.4714 6.4714C10.5964 6.34638 10.6667 6.17681 10.6667 6C10.6667 5.82319 10.5964 5.65362 10.4714 5.5286C10.3464 5.40357 10.1768 5.33333 10 5.33333C9.82319 5.33333 9.65362 5.40357 9.5286 5.5286C9.40357 5.65362 9.33333 5.82319 9.33333 6Z" stroke="#181B1A" stroke-linecap="round" stroke-linejoin="round"/>
</svg>
