<svg width="6" height="10" viewBox="0 0 6 10" fill="none" xmlns="http://www.w3.org/2000/svg">
<path d="M2.11523 4.02637L2.1084 4.01953L2.10352 4.01367C2.48824 3.65403 2.73648 3.41426 3.01172 3.2041C3.35546 2.93418 3.70611 2.67154 4.05664 2.40918C4.40726 2.14676 4.7579 1.88411 5.10156 1.61426C5.37595 1.38979 5.55432 1.17386 5.63281 0.961914C5.71111 0.750291 5.6901 0.542237 5.56738 0.333984C5.44452 0.125546 5.28154 0.0142308 5.07812 0.00683594C4.87413 -0.00055654 4.62806 0.0961075 4.33984 0.305664L3.78418 0.689453C3.23004 1.07455 2.68331 1.4674 2.16797 1.89453L1.79785 2.23828C1.43078 2.58806 1.07557 2.95894 0.766602 3.36328C0.451271 3.78195 0.34877 4.20737 0.4375 4.57227C0.526246 4.93708 0.806681 5.24256 1.25879 5.42188C1.75319 5.60159 2.27495 5.69146 2.79785 5.81152V5.8125L3.10059 5.89063C3.20833 5.91633 3.32937 5.94574 3.47656 5.98926L3.4834 5.99805L3.4873 6.00391C2.97868 6.40869 2.49764 6.78391 2.03027 7.14746C1.56288 7.51103 1.10889 7.86286 0.655273 8.22266C0.463097 8.37236 0.271632 8.55219 0.134766 8.79102C-0.0563672 9.11858 -0.0295566 9.47558 0.188477 9.74316C0.297539 9.87698 0.434065 9.95843 0.580078 9.98438C0.725964 10.0103 0.882373 9.98061 1.03223 9.8916H1.0332C1.08758 9.86194 1.13512 9.82449 1.17969 9.78711C1.22397 9.74996 1.26524 9.71178 1.30664 9.68164C1.30906 9.67977 1.31204 9.67766 1.31445 9.67578C1.31666 9.67407 1.31908 9.67261 1.32129 9.6709C1.32371 9.66902 1.32668 9.66691 1.3291 9.66504C1.33145 9.66322 1.33359 9.661 1.33594 9.65918C1.33834 9.65732 1.34135 9.65518 1.34375 9.65332C1.34596 9.65161 1.34837 9.65015 1.35059 9.64844C1.35292 9.64663 1.35509 9.64439 1.35742 9.64258C1.35984 9.6407 1.36282 9.63859 1.36523 9.63672C1.36758 9.6349 1.36973 9.63268 1.37207 9.63086C1.37446 9.629 1.37749 9.62783 1.37988 9.62598L1.39355 9.61426C1.39597 9.61238 1.39895 9.61027 1.40137 9.6084C1.40358 9.60668 1.40599 9.60523 1.4082 9.60352C1.41062 9.60164 1.4136 9.59953 1.41602 9.59766C1.41838 9.59582 1.42048 9.59363 1.42285 9.5918C1.42527 9.58992 1.42825 9.58781 1.43066 9.58594C1.43288 9.58422 1.43529 9.58277 1.4375 9.58105C1.4398 9.57927 1.44204 9.57698 1.44434 9.5752C1.44675 9.57332 1.44973 9.57121 1.45215 9.56934C1.45452 9.5675 1.45662 9.56531 1.45898 9.56348C1.46139 9.56161 1.46439 9.56046 1.4668 9.55859C1.46915 9.55677 1.47128 9.55456 1.47363 9.55273C1.47605 9.55086 1.47903 9.54875 1.48145 9.54688C1.48377 9.54507 1.48596 9.54282 1.48828 9.54102C1.49049 9.5393 1.49291 9.53785 1.49512 9.53613C1.49753 9.53426 1.50052 9.53214 1.50293 9.53027C1.50529 9.52844 1.5074 9.52625 1.50977 9.52441C1.51218 9.52254 1.51516 9.52043 1.51758 9.51855C1.51989 9.51676 1.5221 9.51449 1.52441 9.5127C1.52678 9.51086 1.52986 9.50964 1.53223 9.50781L1.5459 9.49609C1.54832 9.49422 1.55129 9.49211 1.55371 9.49023C1.55592 9.48852 1.55834 9.48707 1.56055 9.48535C1.56296 9.48348 1.56594 9.48137 1.56836 9.47949C1.57072 9.47766 1.57284 9.47546 1.5752 9.47363C1.5776 9.47177 1.5806 9.46964 1.58301 9.46777C1.58522 9.46606 1.58763 9.46461 1.58984 9.46289C1.59217 9.46108 1.59435 9.45884 1.59668 9.45703C1.5991 9.45516 1.60208 9.45305 1.60449 9.45117C1.60684 9.44935 1.60898 9.44713 1.61133 9.44531C1.61373 9.44345 1.61674 9.44229 1.61914 9.44043L1.63281 9.42871C1.63523 9.42684 1.63821 9.42473 1.64062 9.42285C1.64284 9.42114 1.64525 9.41968 1.64746 9.41797C1.64988 9.41609 1.65286 9.41398 1.65527 9.41211C1.65764 9.41027 1.65974 9.40809 1.66211 9.40625C1.66453 9.40438 1.66751 9.40227 1.66992 9.40039C1.67213 9.39868 1.67455 9.39722 1.67676 9.39551C1.67905 9.39373 1.6813 9.39143 1.68359 9.38965C1.68601 9.38777 1.68899 9.38566 1.69141 9.38379C1.69377 9.38195 1.69587 9.37977 1.69824 9.37793C1.70064 9.37607 1.70366 9.37491 1.70605 9.37305C1.70841 9.37122 1.71054 9.36901 1.71289 9.36719C1.71531 9.36531 1.71829 9.3632 1.7207 9.36133C1.72303 9.35952 1.72521 9.35727 1.72754 9.35547C1.72975 9.35375 1.73216 9.3523 1.73437 9.35059C1.73678 9.34872 1.73978 9.34659 1.74219 9.34473C1.74455 9.3429 1.74666 9.3407 1.74902 9.33887C1.75144 9.33699 1.75442 9.33488 1.75684 9.33301C1.75915 9.33121 1.76135 9.32895 1.76367 9.32715C1.76604 9.32531 1.76912 9.3241 1.77148 9.32227L1.78516 9.31055C1.78757 9.30867 1.79055 9.30656 1.79297 9.30469C1.79518 9.30297 1.79759 9.30152 1.7998 9.2998C1.80222 9.29793 1.8052 9.29582 1.80762 9.29395C1.80998 9.29211 1.81209 9.28992 1.81445 9.28809C1.81686 9.28622 1.81986 9.2841 1.82227 9.28223C1.82448 9.28051 1.82689 9.27906 1.8291 9.27734C1.83143 9.27554 1.83361 9.27329 1.83594 9.27148C1.83835 9.26961 1.84133 9.2675 1.84375 9.26562C1.8461 9.2638 1.84823 9.26159 1.85059 9.25977C1.85299 9.2579 1.856 9.25675 1.8584 9.25488L1.87207 9.24316C1.87449 9.24129 1.87747 9.23918 1.87988 9.2373C1.88209 9.23559 1.88451 9.23414 1.88672 9.23242C1.88914 9.23055 1.89211 9.22844 1.89453 9.22656C1.8969 9.22473 1.899 9.22254 1.90137 9.2207C1.90378 9.21883 1.90676 9.21672 1.90918 9.21484C1.91139 9.21313 1.9138 9.21168 1.91602 9.20996C1.91831 9.20818 1.92056 9.20588 1.92285 9.2041C1.92527 9.20223 1.92825 9.20012 1.93066 9.19824C1.93303 9.19641 1.93513 9.19422 1.9375 9.19238C1.93989 9.19053 1.94292 9.18936 1.94531 9.1875C1.94766 9.18568 1.9498 9.18346 1.95215 9.18164C1.95457 9.17977 1.95754 9.17766 1.95996 9.17578L1.97363 9.16406C1.97604 9.1622 1.97904 9.16104 1.98145 9.15918C1.9838 9.15735 1.98593 9.15515 1.98828 9.15332C1.9907 9.15145 1.99368 9.14934 1.99609 9.14746C1.99842 9.14566 2.00061 9.1434 2.00293 9.1416C2.0053 9.13976 2.00837 9.13856 2.01074 9.13672L2.02441 9.125C2.02683 9.12313 2.02981 9.12102 2.03223 9.11914C2.03444 9.11743 2.03685 9.11597 2.03906 9.11426C2.04148 9.11238 2.04446 9.11027 2.04687 9.1084C2.04924 9.10656 2.05134 9.10437 2.05371 9.10254C2.05613 9.10067 2.05911 9.09855 2.06152 9.09668C2.06373 9.09496 2.06615 9.09351 2.06836 9.0918C2.07068 9.09 2.07288 9.08774 2.0752 9.08594C2.07761 9.08406 2.08059 9.08195 2.08301 9.08008C2.08537 9.07825 2.08749 9.07605 2.08984 9.07422C2.09225 9.07235 2.09525 9.0712 2.09766 9.06934C2.10002 9.0675 2.10212 9.06531 2.10449 9.06348C2.10691 9.0616 2.10989 9.05949 2.1123 9.05762C2.11461 9.05583 2.11684 9.05354 2.11914 9.05176C2.12135 9.05004 2.12377 9.04859 2.12598 9.04688C2.12839 9.045 2.13137 9.04289 2.13379 9.04102C2.13616 9.03918 2.13826 9.03699 2.14062 9.03516C2.14304 9.03328 2.14602 9.03117 2.14844 9.0293C2.15065 9.02758 2.15306 9.02613 2.15527 9.02441C2.15756 9.02264 2.15982 9.02033 2.16211 9.01855C2.16453 9.01668 2.16751 9.01457 2.16992 9.0127C2.17229 9.01086 2.17439 9.00867 2.17676 9.00684C2.17915 9.00498 2.18218 9.00381 2.18457 9.00195C2.18691 9.00014 2.18906 8.99791 2.19141 8.99609C2.19382 8.99422 2.1968 8.99211 2.19922 8.99023L2.21289 8.97852C2.21529 8.97666 2.21831 8.97549 2.2207 8.97363C2.22305 8.97181 2.22519 8.9696 2.22754 8.96777C2.22996 8.9659 2.23293 8.96379 2.23535 8.96191C2.23768 8.96011 2.23986 8.95786 2.24219 8.95605C2.24456 8.95421 2.24762 8.95302 2.25 8.95117L2.26367 8.93945C2.26609 8.93758 2.26907 8.93547 2.27148 8.93359C2.2737 8.93188 2.27611 8.93043 2.27832 8.92871C2.28074 8.92684 2.28372 8.92473 2.28613 8.92285C2.2885 8.92101 2.2906 8.91883 2.29297 8.91699C2.29539 8.91512 2.29836 8.91301 2.30078 8.91113C2.30299 8.90942 2.30541 8.90796 2.30762 8.90625C2.30993 8.90445 2.31214 8.90219 2.31445 8.90039C2.31687 8.89852 2.31985 8.89641 2.32227 8.89453C2.32463 8.8927 2.32674 8.8905 2.3291 8.88867C2.33151 8.8868 2.3345 8.88566 2.33691 8.88379C2.33928 8.88195 2.34138 8.87977 2.34375 8.87793C2.34617 8.87606 2.34915 8.87394 2.35156 8.87207C2.35387 8.87028 2.35609 8.868 2.3584 8.86621C2.36061 8.8645 2.36302 8.86304 2.36523 8.86133C2.36765 8.85945 2.37063 8.85734 2.37305 8.85547C2.37542 8.85363 2.37751 8.85145 2.37988 8.84961C2.3823 8.84773 2.38528 8.84562 2.3877 8.84375C2.38991 8.84204 2.39232 8.84058 2.39453 8.83887C2.39681 8.8371 2.39909 8.83478 2.40137 8.83301C2.40378 8.83113 2.40676 8.82902 2.40918 8.82715C2.41155 8.82531 2.41365 8.82313 2.41602 8.82129C2.41843 8.81941 2.42141 8.8173 2.42383 8.81543C2.42604 8.81371 2.42845 8.81226 2.43066 8.81055C2.43308 8.80867 2.43606 8.80656 2.43848 8.80469L2.45215 8.79297C2.45454 8.79111 2.45757 8.78994 2.45996 8.78809C2.46231 8.78627 2.46445 8.78405 2.4668 8.78223C2.46921 8.78035 2.47219 8.77824 2.47461 8.77637C2.47694 8.77456 2.47911 8.77232 2.48145 8.77051C2.48383 8.76866 2.48688 8.76747 2.48926 8.76562L2.50293 8.75391C2.50535 8.75203 2.50833 8.74992 2.51074 8.74805C2.51295 8.74633 2.51537 8.74488 2.51758 8.74316C2.51999 8.74129 2.52297 8.73918 2.52539 8.7373C2.52776 8.73547 2.52986 8.73328 2.53223 8.73145C2.53464 8.72957 2.53762 8.72746 2.54004 8.72559C2.54225 8.72387 2.54466 8.72242 2.54687 8.7207C2.54919 8.71891 2.5514 8.71664 2.55371 8.71484C2.55613 8.71297 2.55911 8.71086 2.56152 8.70898C2.56389 8.70715 2.56599 8.70496 2.56836 8.70312C2.57077 8.70125 2.57376 8.70011 2.57617 8.69824C2.57854 8.69641 2.58064 8.69422 2.58301 8.69238C2.58542 8.69051 2.5884 8.6884 2.59082 8.68652C2.59313 8.68473 2.59534 8.68246 2.59766 8.68066C2.59987 8.67895 2.60228 8.6775 2.60449 8.67578C2.60691 8.67391 2.60989 8.6718 2.6123 8.66992C2.61467 8.66808 2.61677 8.6659 2.61914 8.66406C2.62156 8.66219 2.62454 8.66008 2.62695 8.6582C2.62916 8.65649 2.63158 8.65504 2.63379 8.65332C2.63606 8.65156 2.63835 8.64923 2.64062 8.64746C2.64304 8.64559 2.64602 8.64348 2.64844 8.6416C2.65081 8.63976 2.6529 8.63758 2.65527 8.63574C2.65769 8.63387 2.66067 8.63176 2.66309 8.62988C2.6653 8.62817 2.66771 8.62671 2.66992 8.625C2.67234 8.62313 2.67532 8.62102 2.67773 8.61914L2.69141 8.60742C2.69379 8.60557 2.69683 8.60439 2.69922 8.60254C2.70156 8.60072 2.70371 8.59849 2.70605 8.59668C2.70847 8.59481 2.71145 8.59269 2.71387 8.59082C2.71621 8.58901 2.71836 8.58677 2.7207 8.58496C2.72309 8.58311 2.72613 8.58193 2.72852 8.58008L2.74219 8.56836C2.7446 8.56648 2.74758 8.56437 2.75 8.5625C2.75221 8.56079 2.75462 8.55933 2.75684 8.55762C2.75925 8.55574 2.76223 8.55363 2.76465 8.55176C2.76702 8.54992 2.76912 8.54774 2.77148 8.5459C2.7739 8.54402 2.77688 8.54191 2.7793 8.54004C2.78151 8.53832 2.78392 8.53687 2.78613 8.53516C2.78844 8.53337 2.79066 8.53108 2.79297 8.5293C2.79539 8.52742 2.79836 8.52531 2.80078 8.52344C2.80315 8.5216 2.80525 8.51942 2.80762 8.51758C2.81003 8.51571 2.81302 8.51456 2.81543 8.5127C2.81779 8.51086 2.8199 8.50867 2.82227 8.50684C2.82468 8.50496 2.82766 8.50285 2.83008 8.50098C2.83239 8.49918 2.8346 8.49691 2.83691 8.49512C2.83913 8.4934 2.84154 8.49195 2.84375 8.49023C2.84617 8.48836 2.84915 8.48625 2.85156 8.48438C2.85393 8.48254 2.85603 8.48035 2.8584 8.47852C2.86082 8.47664 2.86379 8.47453 2.86621 8.47266C2.86852 8.47087 2.87074 8.46859 2.87305 8.4668C2.8754 8.46497 2.8785 8.46374 2.88086 8.46191L2.89453 8.4502C2.89695 8.44832 2.89993 8.44621 2.90234 8.44434C2.90455 8.44262 2.90697 8.44117 2.90918 8.43945C2.9116 8.43758 2.91458 8.43547 2.91699 8.43359L2.93066 8.42188C2.93305 8.42003 2.93609 8.41884 2.93848 8.41699C2.94081 8.41518 2.94298 8.41294 2.94531 8.41113C2.94773 8.40926 2.95071 8.40715 2.95312 8.40527C2.95547 8.40346 2.95762 8.40123 2.95996 8.39941C2.96235 8.39756 2.96538 8.39639 2.96777 8.39453L2.98145 8.38281C2.98386 8.38094 2.98684 8.37883 2.98926 8.37695C2.99147 8.37524 2.99388 8.37379 2.99609 8.37207C2.99851 8.3702 3.00149 8.36809 3.00391 8.36621C3.00627 8.36437 3.00837 8.36219 3.01074 8.36035C3.01316 8.35848 3.01614 8.35637 3.01855 8.35449C3.02077 8.35278 3.02318 8.35132 3.02539 8.34961C3.02769 8.34783 3.02993 8.34553 3.03223 8.34375C3.03464 8.34188 3.03762 8.33977 3.04004 8.33789C3.04241 8.33605 3.04451 8.33387 3.04687 8.33203C3.04928 8.33017 3.05228 8.32901 3.05469 8.32715C3.05704 8.32532 3.05917 8.32312 3.06152 8.32129C3.06394 8.31941 3.06692 8.3173 3.06934 8.31543C3.07166 8.31363 3.07385 8.31137 3.07617 8.30957C3.07838 8.30786 3.0808 8.3064 3.08301 8.30469C3.08542 8.30282 3.08841 8.3007 3.09082 8.29883C3.09319 8.29699 3.09529 8.2948 3.09766 8.29297C3.10007 8.29109 3.10305 8.28898 3.10547 8.28711C3.10778 8.28532 3.10999 8.28304 3.1123 8.28125C3.11467 8.27942 3.11776 8.2782 3.12012 8.27637L3.13379 8.26465C3.13621 8.26277 3.13918 8.26066 3.1416 8.25879C3.14381 8.25707 3.14623 8.25562 3.14844 8.25391C3.15085 8.25203 3.15383 8.24992 3.15625 8.24805L3.16992 8.23633C3.1723 8.23448 3.17536 8.23329 3.17773 8.23145C3.18006 8.22964 3.18224 8.22739 3.18457 8.22559C3.18699 8.22371 3.18997 8.2216 3.19238 8.21973C3.19473 8.21791 3.19687 8.21569 3.19922 8.21387C3.20162 8.21201 3.20463 8.21084 3.20703 8.20898L3.2207 8.19727C3.22312 8.19539 3.2261 8.19328 3.22852 8.19141C3.23073 8.18969 3.23314 8.18824 3.23535 8.18652C3.23777 8.18465 3.24075 8.18254 3.24316 8.18066C3.24553 8.17883 3.24763 8.17664 3.25 8.1748C3.25242 8.17293 3.2554 8.17082 3.25781 8.16895C3.26002 8.16723 3.26244 8.16578 3.26465 8.16406C3.26694 8.16228 3.26919 8.15998 3.27148 8.1582C3.2739 8.15633 3.27688 8.15422 3.2793 8.15234C3.28167 8.15051 3.28376 8.14832 3.28613 8.14648C3.28853 8.14462 3.29155 8.14346 3.29395 8.1416C3.2963 8.13978 3.29843 8.13757 3.30078 8.13574C3.3032 8.13387 3.30618 8.13176 3.30859 8.12988L3.32227 8.11816C3.32467 8.1163 3.32767 8.11515 3.33008 8.11328C3.33244 8.11145 3.33455 8.10925 3.33691 8.10742C3.33933 8.10555 3.34231 8.10344 3.34473 8.10156C3.34705 8.09976 3.34924 8.0975 3.35156 8.0957C3.35393 8.09387 3.35701 8.09266 3.35937 8.09082L3.37305 8.0791C3.37546 8.07723 3.37844 8.07512 3.38086 8.07324C3.38307 8.07153 3.38548 8.07007 3.3877 8.06836C3.39011 8.06648 3.39309 8.06437 3.39551 8.0625C3.39787 8.06067 3.39998 8.05847 3.40234 8.05664C3.40475 8.05477 3.40775 8.05265 3.41016 8.05078C3.41237 8.04907 3.41478 8.04761 3.41699 8.0459C3.41932 8.04409 3.4215 8.04184 3.42383 8.04004C3.42624 8.03816 3.42922 8.03605 3.43164 8.03418C3.43399 8.03235 3.43612 8.03015 3.43848 8.02832C3.44088 8.02646 3.44389 8.0253 3.44629 8.02344L3.45996 8.01172C3.46238 8.00984 3.46536 8.00773 3.46777 8.00586C3.46998 8.00414 3.4724 8.00269 3.47461 8.00098C3.47703 7.9991 3.48001 7.99699 3.48242 7.99512C3.48479 7.99328 3.48689 7.99109 3.48926 7.98926C3.49167 7.98738 3.49465 7.98527 3.49707 7.9834C3.49928 7.98168 3.5017 7.98023 3.50391 7.97852C3.5062 7.97674 3.50845 7.97443 3.51074 7.97266C3.51316 7.97078 3.51614 7.96867 3.51855 7.9668C3.52092 7.96496 3.52302 7.96277 3.52539 7.96094C3.52781 7.95906 3.53079 7.95695 3.5332 7.95508C3.53541 7.95336 3.53783 7.95191 3.54004 7.9502C3.54246 7.94832 3.54543 7.94621 3.54785 7.94434L3.56152 7.93262C3.56393 7.93075 3.56693 7.9296 3.56934 7.92773C3.57169 7.92591 3.57382 7.9237 3.57617 7.92188C3.57859 7.92 3.58157 7.91789 3.58398 7.91602C3.58631 7.91421 3.5885 7.91196 3.59082 7.91016C3.59319 7.90832 3.59626 7.90711 3.59863 7.90527L3.6123 7.89355C3.61472 7.89168 3.6177 7.88957 3.62012 7.8877C3.62233 7.88598 3.62474 7.88453 3.62695 7.88281C3.62937 7.88094 3.63235 7.87883 3.63477 7.87695C3.63713 7.87512 3.63924 7.87293 3.6416 7.87109C3.64402 7.86922 3.647 7.86711 3.64941 7.86523C3.65163 7.86352 3.65404 7.86207 3.65625 7.86035C3.65857 7.85855 3.66077 7.85629 3.66309 7.85449C3.6655 7.85262 3.66848 7.85051 3.6709 7.84863C3.67326 7.8468 3.67538 7.8446 3.67773 7.84277C3.68014 7.84091 3.68314 7.83976 3.68555 7.83789L3.69922 7.82617C3.70164 7.8243 3.70461 7.82219 3.70703 7.82031C3.70924 7.8186 3.71166 7.81714 3.71387 7.81543C3.71628 7.81356 3.71926 7.81144 3.72168 7.80957C3.72405 7.80773 3.72615 7.80555 3.72852 7.80371C3.73093 7.80184 3.73391 7.79973 3.73633 7.79785C3.73854 7.79614 3.74095 7.79468 3.74316 7.79297C3.74545 7.7912 3.74771 7.78888 3.75 7.78711C3.75242 7.78523 3.7554 7.78312 3.75781 7.78125C3.76018 7.77941 3.76228 7.77723 3.76465 7.77539C3.76707 7.77352 3.77004 7.77141 3.77246 7.76953C3.77467 7.76782 3.77709 7.76636 3.7793 7.76465C3.78171 7.76277 3.78469 7.76066 3.78711 7.75879L3.80078 7.74707C3.80318 7.74521 3.8062 7.74405 3.80859 7.74219C3.81094 7.74036 3.81308 7.73815 3.81543 7.73633C3.81785 7.73445 3.82083 7.73234 3.82324 7.73047C3.82557 7.72866 3.82775 7.72642 3.83008 7.72461C3.83245 7.72277 3.83551 7.72157 3.83789 7.71973L3.85156 7.70801C3.85398 7.70613 3.85696 7.70402 3.85937 7.70215C3.86159 7.70043 3.864 7.69898 3.86621 7.69727C3.86863 7.69539 3.87161 7.69328 3.87402 7.69141C3.87639 7.68957 3.87849 7.68738 3.88086 7.68555C3.88328 7.68367 3.88626 7.68156 3.88867 7.67969C3.89088 7.67797 3.8933 7.67652 3.89551 7.6748C3.89782 7.67301 3.90003 7.67074 3.90234 7.66895C3.90476 7.66707 3.90774 7.66496 3.91016 7.66309C3.91252 7.66125 3.91463 7.65906 3.91699 7.65723C3.9194 7.65536 3.92239 7.65421 3.9248 7.65234L3.93848 7.64063C3.94089 7.63875 3.94387 7.63664 3.94629 7.63477C3.9485 7.63305 3.95091 7.6316 3.95312 7.62988C3.95554 7.62801 3.95852 7.6259 3.96094 7.62402C3.96331 7.62219 3.9654 7.62 3.96777 7.61816C3.97019 7.61629 3.97317 7.61418 3.97559 7.6123C3.97788 7.61052 3.98012 7.60823 3.98242 7.60645C3.98463 7.60473 3.98705 7.60328 3.98926 7.60156C3.99167 7.59969 3.99465 7.59758 3.99707 7.5957C3.99944 7.59387 4.00154 7.59168 4.00391 7.58984C4.00632 7.58797 4.0093 7.58586 4.01172 7.58398C4.01393 7.58227 4.01634 7.58082 4.01855 7.5791C4.02097 7.57723 4.02395 7.57512 4.02637 7.57324L4.04004 7.56152C4.04243 7.55967 4.04546 7.5585 4.04785 7.55664C4.0502 7.55482 4.05234 7.5526 4.05469 7.55078C4.0571 7.54891 4.06008 7.5468 4.0625 7.54492C4.06483 7.54311 4.067 7.54087 4.06934 7.53906C4.07172 7.53722 4.07477 7.53603 4.07715 7.53418L4.09082 7.52246C4.09324 7.52059 4.09622 7.51848 4.09863 7.5166C4.10084 7.51489 4.10326 7.51343 4.10547 7.51172C4.10789 7.50984 4.11086 7.50773 4.11328 7.50586C4.11565 7.50402 4.11775 7.50184 4.12012 7.5C4.12253 7.49813 4.12551 7.49602 4.12793 7.49414C4.13014 7.49243 4.13255 7.49097 4.13477 7.48926C4.13708 7.48747 4.13929 7.48519 4.1416 7.4834C4.14402 7.48152 4.147 7.47941 4.14941 7.47754C4.15178 7.4757 4.15388 7.47352 4.15625 7.47168C4.15866 7.46981 4.16165 7.46867 4.16406 7.4668C4.16643 7.46496 4.16853 7.46277 4.1709 7.46094C4.17332 7.45906 4.17629 7.45695 4.17871 7.45508C4.18102 7.45329 4.18324 7.45101 4.18555 7.44922C4.18776 7.4475 4.19017 7.44605 4.19238 7.44434C4.1948 7.44246 4.19778 7.44035 4.2002 7.43848C4.20256 7.43664 4.20466 7.43445 4.20703 7.43262C4.20945 7.43074 4.21243 7.42863 4.21484 7.42676C4.21715 7.42497 4.21938 7.42268 4.22168 7.4209C4.22389 7.41918 4.2263 7.41773 4.22852 7.41602C4.23093 7.41414 4.23391 7.41203 4.23633 7.41016C4.2387 7.40832 4.2408 7.40613 4.24316 7.4043C4.24558 7.40242 4.24856 7.40031 4.25098 7.39844C4.25319 7.39672 4.2556 7.39527 4.25781 7.39355C4.26023 7.39168 4.26321 7.38957 4.26562 7.3877L4.2793 7.37598C4.28169 7.37412 4.28472 7.37295 4.28711 7.37109C4.28945 7.36928 4.2916 7.36705 4.29395 7.36523C4.29636 7.36336 4.29934 7.36125 4.30176 7.35938C4.3041 7.35756 4.30626 7.35533 4.30859 7.35352C4.31098 7.35167 4.31402 7.35048 4.31641 7.34863L4.33008 7.33691C4.33249 7.33504 4.33547 7.33293 4.33789 7.33105C4.3401 7.32934 4.34252 7.32789 4.34473 7.32617C4.34714 7.3243 4.35012 7.32219 4.35254 7.32031C4.35491 7.31848 4.35701 7.31629 4.35937 7.31445C4.36179 7.31258 4.36477 7.31047 4.36719 7.30859C4.3694 7.30688 4.37181 7.30543 4.37402 7.30371C4.37633 7.30192 4.37855 7.29964 4.38086 7.29785C4.38328 7.29598 4.38626 7.29387 4.38867 7.29199C4.39104 7.29016 4.39314 7.28797 4.39551 7.28613C4.39792 7.28426 4.40091 7.28312 4.40332 7.28125C4.40568 7.27942 4.40779 7.27722 4.41016 7.27539C4.41257 7.27352 4.41555 7.27141 4.41797 7.26953L4.43164 7.25781C4.43405 7.25594 4.43704 7.2548 4.43945 7.25293C4.44182 7.25109 4.44392 7.24891 4.44629 7.24707C4.44871 7.2452 4.45168 7.24309 4.4541 7.24121C4.45641 7.23942 4.45863 7.23714 4.46094 7.23535C4.46315 7.23364 4.46556 7.23218 4.46777 7.23047C4.47019 7.22859 4.47317 7.22648 4.47559 7.22461C4.47795 7.22277 4.48005 7.22059 4.48242 7.21875C4.48484 7.21688 4.48782 7.21477 4.49023 7.21289C4.49245 7.21118 4.49486 7.20972 4.49707 7.20801C4.49949 7.20613 4.50247 7.20402 4.50488 7.20215L4.51855 7.19043C4.52094 7.18858 4.52398 7.1874 4.52637 7.18555C4.5287 7.18374 4.53087 7.1815 4.5332 7.17969C4.53562 7.17781 4.5386 7.1757 4.54102 7.17383C4.54336 7.17201 4.54551 7.16979 4.54785 7.16797C4.55024 7.16611 4.55327 7.16494 4.55566 7.16309L4.56934 7.15137C4.57175 7.14949 4.57473 7.14738 4.57715 7.14551C4.57936 7.14379 4.58177 7.14234 4.58398 7.14063C4.5864 7.13875 4.58938 7.13664 4.5918 7.13477C4.59417 7.13293 4.59626 7.13074 4.59863 7.12891C4.60105 7.12703 4.60403 7.12492 4.60645 7.12305C4.60866 7.12133 4.61107 7.11988 4.61328 7.11816C4.61558 7.11638 4.61782 7.11409 4.62012 7.1123C4.62253 7.11043 4.62551 7.10832 4.62793 7.10645C4.6303 7.10461 4.6324 7.10242 4.63477 7.10059C4.63717 7.09872 4.64017 7.09757 4.64258 7.0957C4.64494 7.09387 4.64706 7.09167 4.64941 7.08984C4.65183 7.08797 4.65481 7.08586 4.65723 7.08398L4.6709 7.07227C4.67331 7.07039 4.6763 7.06925 4.67871 7.06738C4.68108 7.06555 4.68318 7.06336 4.68555 7.06152C4.68796 7.05965 4.69094 7.05754 4.69336 7.05566C4.69567 7.05387 4.69788 7.0516 4.7002 7.0498C4.70241 7.04809 4.70482 7.04664 4.70703 7.04492C4.70945 7.04305 4.71243 7.04094 4.71484 7.03906C4.71721 7.03723 4.71931 7.03504 4.72168 7.0332C4.7241 7.03133 4.72708 7.02922 4.72949 7.02734C4.7317 7.02563 4.73412 7.02418 4.73633 7.02246C4.73874 7.02059 4.74172 7.01848 4.74414 7.0166L4.75781 7.00488C4.76019 7.00304 4.76325 7.00185 4.76562 7C4.76796 6.99819 4.77013 6.99595 4.77246 6.99414C4.77488 6.99227 4.77786 6.99016 4.78027 6.98828C4.78262 6.98646 4.78476 6.98424 4.78711 6.98242C4.78951 6.98056 4.79253 6.9794 4.79492 6.97754L4.80859 6.96582C4.81101 6.96395 4.81399 6.96184 4.81641 6.95996C4.81862 6.95825 4.82103 6.95679 4.82324 6.95508C4.82566 6.9532 4.82864 6.95109 4.83105 6.94922C4.83342 6.94738 4.83552 6.9452 4.83789 6.94336C4.84031 6.94148 4.84329 6.93937 4.8457 6.9375C4.84791 6.93579 4.85033 6.93433 4.85254 6.93262C4.85484 6.93084 4.85708 6.92854 4.85937 6.92676C4.86179 6.92488 4.86477 6.92277 4.86719 6.9209C4.86956 6.91906 4.87165 6.91688 4.87402 6.91504C4.87644 6.91316 4.87942 6.91105 4.88184 6.90918C4.88405 6.90746 4.88646 6.90601 4.88867 6.9043C4.89109 6.90242 4.89407 6.90031 4.89648 6.89844L4.91016 6.88672C4.91257 6.88485 4.91556 6.8837 4.91797 6.88184C4.92033 6.88001 4.92244 6.87781 4.9248 6.87598C4.92722 6.8741 4.9302 6.87199 4.93262 6.87012C4.93494 6.86832 4.93714 6.86606 4.93945 6.86426C4.94182 6.86242 4.9449 6.86121 4.94727 6.85938L4.96094 6.84766C4.96335 6.84578 4.96633 6.84367 4.96875 6.8418C4.97096 6.84008 4.97337 6.83863 4.97559 6.83691C4.978 6.83504 4.98098 6.83293 4.9834 6.83105L4.99707 6.81934C4.99944 6.81749 5.00251 6.81629 5.00488 6.81445L5.01855 6.80273C5.10114 6.72768 5.19096 6.65306 5.28027 6.57813C5.36956 6.50322 5.45872 6.4283 5.54102 6.35352C5.70559 6.20394 5.84236 6.03949 5.9209 5.84961C5.99936 5.65986 6.0205 5.44394 5.95215 5.19043C5.8838 4.95193 5.76031 4.78828 5.60352 4.67676C5.44663 4.56526 5.2553 4.50547 5.0498 4.47559C4.52795 4.41569 4.03224 4.3859 3.53711 4.2959C3.099 4.23615 2.68831 4.14545 2.11523 4.02637ZM2.11523 4.02637C2.11268 4.02584 2.10999 4.02592 2.10742 4.02539L2.11621 4.02734L2.11523 4.02637Z" fill="#181B1A" stroke="#033028" stroke-width="0.0135173"/>
</svg>
